<svg xmlns="http://www.w3.org/2000/svg" xmlns:xlink="http://www.w3.org/1999/xlink" preserveAspectRatio="xMidYMid" width="30" height="49" viewBox="0 0 30 49">
  <defs>
    <style>
      .cls-1 {
        fill: #141414;
        fill-rule: evenodd;
      }
    </style>
  </defs>
  <path d="M24.875,-0.000 L5.125,-0.000 C2.294,-0.000 -0.000,2.293 -0.000,5.124 L-0.000,43.875 C-0.000,46.707 2.294,48.998 5.125,48.998 L24.875,48.998 C27.705,48.998 30.000,46.707 30.000,43.875 L30.000,5.124 C30.000,2.293 27.705,-0.000 24.875,-0.000 ZM28.000,43.875 C28.000,45.599 26.598,47.000 24.875,47.000 L5.125,47.000 C3.402,47.000 2.000,45.599 2.000,43.875 L2.000,38.999 L28.000,38.999 L28.000,43.875 ZM28.000,36.999 L2.000,36.999 L2.000,9.001 L28.000,9.001 L28.000,36.999 ZM28.000,7.001 L2.000,7.001 L2.000,5.124 C2.000,3.402 3.402,1.999 5.125,1.999 L24.875,1.999 C26.598,1.999 28.000,3.402 28.000,5.124 L28.000,7.001 ZM15.000,45.000 C16.104,45.000 17.000,44.106 17.000,43.001 C17.000,41.897 16.104,41.002 15.000,41.002 C13.895,41.002 13.000,41.897 13.000,43.001 C13.000,44.106 13.895,45.000 15.000,45.000 Z" class="cls-1"/>
</svg>
