<svg xmlns="http://www.w3.org/2000/svg" xmlns:xlink="http://www.w3.org/1999/xlink" preserveAspectRatio="xMidYMid" width="50" height="42" viewBox="0 0 50 42">
  <defs>
    <style>
      .cls-1 {
        fill: #141414;
        fill-rule: evenodd;
      }
    </style>
  </defs>
  <path d="M9.000,3.999 L8.999,-0.001 L6.999,-0.001 L7.000,3.999 C3.055,4.493 -0.000,7.920 -0.000,11.999 C-0.000,16.080 3.055,19.506 7.000,20.000 L6.999,41.999 L8.999,41.999 L9.000,20.000 C12.945,19.506 16.000,16.080 16.000,11.999 C16.000,7.920 12.945,4.492 9.000,3.999 ZM8.000,18.000 C4.692,18.000 2.000,15.308 2.000,11.999 C2.000,8.691 4.692,6.000 8.000,6.000 C11.308,6.000 14.000,8.691 14.000,11.999 C14.000,15.308 11.308,18.000 8.000,18.000 ZM26.000,21.001 L26.000,-0.001 L24.000,-0.001 L24.000,21.001 C20.049,21.488 16.989,24.917 16.989,28.999 C16.989,33.082 20.049,36.511 24.000,36.999 L24.000,41.999 L26.000,41.999 L26.000,36.999 C29.939,36.502 33.000,33.073 33.000,28.999 C33.000,24.922 29.939,21.498 26.000,21.001 ZM25.000,35.000 C21.692,35.000 18.989,32.310 18.989,28.999 C18.989,25.692 21.692,23.001 25.000,23.001 C28.308,23.001 31.000,25.692 31.000,28.999 C31.000,32.310 28.308,35.000 25.000,35.000 ZM43.000,11.999 L43.000,-0.001 L41.000,-0.001 L41.000,11.999 C37.055,12.493 34.000,15.921 34.000,20.000 C34.000,24.078 37.055,27.507 41.000,27.999 L41.000,41.999 L43.000,41.999 L43.000,27.999 C46.945,27.507 50.000,24.078 50.000,20.000 C50.000,15.921 46.945,12.493 43.000,11.999 ZM42.000,26.001 C38.691,26.001 36.000,23.308 36.000,20.000 C36.000,16.691 38.691,14.000 42.000,14.000 C45.308,14.000 48.000,16.691 48.000,20.000 C48.000,23.308 45.308,26.001 42.000,26.001 Z" class="cls-1"/>
</svg>
